<svg xmlns="http://www.w3.org/2000/svg"  viewBox="0 0 48 48" width="48px" height="48px"><rect width="23" height="4" y="40" fill="#6c19ff"/><path fill="#f5bc00" d="M24,4C12.954,4,4,12.954,4,24s8.954,20,20,20s20-8.954,20-20S35.046,4,24,4z"/><rect width="21" height="4" y="24" fill="#6c19ff"/><rect width="31" height="4" x="3" y="32" fill="#6c19ff"/><path fill="#2100c4" d="M21,28v-4H4c0,1.37,0.139,2.707,0.402,4H21z"/><path fill="#2100c4" d="M8.027,36H34v-4H5.675C6.301,33.432,7.099,34.767,8.027,36z"/><path fill="#2100c4" d="M23,43.95V40H12.036C15.124,42.313,18.895,43.746,23,43.95z"/></svg>