<svg xmlns="http://www.w3.org/2000/svg"  viewBox="0 0 48 48" width="48px" height="48px"><polygon fill="#f5bc00" points="29,30 25,30 25,24.201 19,33 23,33 23,39.799"/><circle cx="16.654" cy="13.5" r="9.5" fill="#f5bc00"/><path fill="#3dd9eb" d="M41.455,20c0-6.627-5.436-12-12.142-12c-6.176,0-11.264,4.561-12.031,10.458 c-1.027-0.547-2.202-0.858-3.45-0.858c-4.024,0-7.285,3.224-7.285,7.2c0,3.825,3.02,6.944,6.831,7.177l16.514-0.006 C36.326,31.671,41.455,26.435,41.455,20z"/><path fill="#00b3d7" d="M9.139,19.296C10.876,21.545,13.592,23,16.654,23c5.247,0,9.5-4.253,9.5-9.5 c0-1.705-0.455-3.302-1.242-4.685c-4.061,1.564-7.056,5.229-7.631,9.644c-1.027-0.547-2.202-0.858-3.45-0.858 C12.042,17.6,10.407,18.239,9.139,19.296z"/><path fill="#7debf5" d="M33.586,40.446L32,38.461l-1.587,1.984l0.001,0.001C30.155,40.783,30,41.203,30,41.661 c0,1.105,0.895,2,2,2s2-0.895,2-2C34,41.203,33.845,40.783,33.586,40.446z"/><path fill="#7debf5" d="M16.482,36.642L14.5,34.161l-1.984,2.48l0.002,0.001C12.194,37.063,12,37.589,12,38.161 c0,1.381,1.119,2.5,2.5,2.5s2.5-1.119,2.5-2.5C17,37.589,16.806,37.063,16.482,36.642z"/><polygon fill="#00b3d7" points="25,30 25,24.201 19.699,31.975 27.792,31.972 29,30"/></svg>