<svg xmlns="http://www.w3.org/2000/svg"  viewBox="0 0 48 48" width="48px" height="48px"><path fill="#3dd9eb" d="M41.969,17.5c0-6.904-5.596-12.5-12.5-12.5c-6.358,0-11.596,4.751-12.385,10.894 C16.026,15.324,14.817,15,13.531,15c-4.142,0-7.5,3.358-7.5,7.5c0,3.984,3.109,7.234,7.032,7.476l17-0.006 C36.689,29.658,41.969,24.203,41.969,17.5z"/><rect width="3" height="15" x="12" y="26" fill="#7debf5"/><path fill="#00b3d7" d="M12,29.825c0.347,0.072,0.7,0.129,1.063,0.151L15,29.976V26h-3V29.825z"/><rect width="3" height="12" x="18" y="33" fill="#7debf5"/><rect width="3" height="15" x="24" y="26" fill="#7debf5"/><rect width="3" height="12" x="30" y="33" fill="#7debf5"/><rect width="3" height="4" x="24" y="26" fill="#00b3d7"/></svg>