<svg xmlns="http://www.w3.org/2000/svg"  viewBox="0 0 48 48" width="48px" height="48px"><rect width="10.188" height="3" x="32.406" y="32.5" fill="#7debf5" transform="rotate(-27.949 37.499 33.999)"/><rect width="3" height="10.188" x="36.001" y="28.903" fill="#7debf5" transform="rotate(-62.051 37.5 33.996)"/><rect width="3" height="10" x="36" y="29" fill="#7debf5"/><rect width="10.188" height="3" x="15.406" y="38.5" fill="#7debf5" transform="rotate(-27.949 20.5 39.999)"/><rect width="3" height="10.188" x="19" y="34.903" fill="#7debf5" transform="rotate(-62.051 20.5 39.996)"/><rect width="3" height="10" x="19" y="35" fill="#7debf5"/><g><rect width="3" height="10.188" x="6.5" y="22.406" fill="#7debf5" transform="rotate(-27.949 8 27.499)"/><rect width="10.188" height="3" x="2.909" y="26" fill="#7debf5" transform="rotate(-62.051 8.003 27.5)"/><rect width="10" height="3" x="3" y="26" fill="#7debf5"/></g><g><rect width="3" height="10.188" x="12.5" y="5.406" fill="#7debf5" transform="rotate(-27.949 14 10.5)"/><rect width="10.188" height="3" x="8.909" y="9" fill="#7debf5" transform="rotate(-62.051 14.002 10.5)"/><rect width="10" height="3" x="9" y="9" fill="#7debf5"/></g><g><polygon fill="#3dd9eb" points="38.436,7.186 36.314,5.064 35,6.379 35,4 32,4 32,6.379 30.686,5.064 28.564,7.186 32.439,11.061 34.561,11.061"/><polygon fill="#3dd9eb" points="30.061,13.439 26.186,9.564 24.064,11.686 25.379,13 23,13 23,16 25.379,16 24.064,17.314 26.186,19.436 30.061,15.561"/><polygon fill="#3dd9eb" points="38.436,21.814 34.561,17.939 32.439,17.939 28.564,21.814 30.686,23.936 32,22.621 32,25 35,25 35,22.621 36.314,23.936"/><polygon fill="#3dd9eb" points="44,13 41.621,13 42.936,11.686 40.814,9.564 36.939,13.439 36.939,15.561 40.814,19.436 42.936,17.314 41.621,16 44,16"/><polygon fill="#00b3d7" points="33.5,7.879 32,6.379 32,10.621 32.439,11.061 34.561,11.061 35,10.621 35,6.379"/><polygon fill="#00b3d7" points="26.879,14.5 25.379,16 29.621,16 30.061,15.561 30.061,13.439 29.621,13 25.379,13"/><polygon fill="#00b3d7" points="33.5,21.121 35,22.621 35,18.379 34.561,17.939 32.439,17.939 32,18.379 32,22.621"/><polygon fill="#00b3d7" points="40.121,14.5 41.621,13 37.379,13 36.939,13.439 36.939,15.561 37.379,16 41.621,16"/><circle cx="33.5" cy="14.5" r="4.5" fill="#3dd9eb"/></g></svg>